Coordinates
version=1
nRows=7
nColumns=42
inDegrees=yes

Units are S.I. units (second, meters, Newtons, ...)
If the header above contains a line with 'inDegrees', this indicates whether rotational values are in degrees (yes) or radians (no).

endheader
time	pelvis_tilt	pelvis_list	pelvis_rotation	pelvis_tx	pelvis_ty	pelvis_tz	hip_flexion_r	hip_adduction_r	hip_rotation_r	knee_angle_r	knee_adduction_r	knee_angle_r_beta	ankle_angle_r	subtalar_angle_r	mtp_angle_r	hip_flexion_l	hip_adduction_l	hip_rotation_l	knee_angle_l	knee_adduction_l	knee_angle_l_beta	ankle_angle_l	subtalar_angle_l	mtp_angle_l	lumbar_extension	lumbar_bending	lumbar_rotation	arm_flex_r	arm_add_r	arm_rot_r	elbow_flex_r	pro_sup_r	wrist_flex_r	wrist_dev_r	arm_flex_l	arm_add_l	arm_rot_l	elbow_flex_l	pro_sup_l	wrist_flex_l	wrist_dev_l
      0.00000000	      3.00707672	     -2.08728518	     -5.95527718	     -1.38130050	      1.00343089	     -0.23686949	    -16.74253772	      0.53874897	      4.17455811	      5.95001171	     10.73893134	      0.10384729	     12.99422315	      7.85287779	     -9.51173356	     20.43697220	    -12.50250934	    -11.02078368	     15.25839630	     11.88713940	      0.26630925	      1.52909220	     -6.61017310	     -9.51173356	    -12.39976462	     -0.98377898	     12.41128924	     12.05360786	    -20.73759331	     -3.50102765	     41.85089581	     90.00000001	      0.00000000	      0.00000000	    -19.59536575	    -15.88139312	      0.63997367	     23.91662056	     90.00000001	      0.00000000	      0.00000000
      0.01000000	      2.61758812	     -2.49954690	     -6.32241222	     -1.36842064	      1.00041378	     -0.23663116	    -17.00625673	      0.91173960	      4.48124528	      6.31330348	     10.60814584	      0.11018793	     13.38025554	      7.93830688	     -9.47254899	     20.88833537	    -13.11631126	    -11.71739664	     12.67013127	     12.33170416	      0.22113551	      1.36519982	     -4.88041592	     -9.47254899	    -12.09052016	     -0.64452487	     12.79930965	     12.93866704	    -21.16999290	     -2.90741546	     42.38390650	     90.00000001	      0.00000000	      0.00000000	    -20.27274104	    -15.73484855	      0.39121237	     23.97425969	     90.00000001	      0.00000000	      0.00000000
      0.02000000	      2.31103421	     -2.76803619	     -6.70568762	     -1.35496011	      0.99746712	     -0.23625800	    -17.41840808	      1.14176767	      4.77248449	      6.60237712	     10.41574476	      0.11523322	     13.70506422	      7.94171538	     -9.44302142	     21.18710449	    -13.62663516	    -12.46804420	     10.37137999	     12.88599238	      0.18101473	      1.15521090	     -3.30700165	     -9.44302142	    -11.79906145	     -0.49564518	     13.13564638	     13.73834242	    -21.51712304	     -2.25616064	     42.82294272	     90.00000001	      0.00000000	      0.00000000	    -20.94672834	    -15.62551512	      0.12351139	     24.00720290	     90.00000001	      0.00000000	      0.00000000
      0.03000000	      2.58545247	     -2.76060056	     -7.27898149	     -1.34108770	      0.99529118	     -0.23620359	    -18.50202482	      0.80605668	      5.48819845	      6.69044238	     10.42645647	      0.11677025	     13.83804653	      7.65411392	     -9.36119923	     20.73248836	    -13.72463591	    -13.74515876	      8.39159446	     13.19639505	      0.14646095	      1.41234495	     -1.38783257	     -9.36119923	    -12.11602156	     -0.71287296	     13.48894099	     14.57270424	    -21.96973332	     -1.12450393	     43.35345486	     90.00000001	      0.00000000	      0.00000000	    -21.49363364	    -15.31089100	     -0.85265199	     23.86326191	     90.00000001	      0.00000000	      0.00000000
      0.04000000	      2.34599041	     -2.91764734	     -7.69066286	     -1.32741198	      0.99261859	     -0.23591385	    -18.89877032	      0.86245762	      5.94318080	      7.12762855	     10.26152766	      0.12440059	     14.00814225	      7.49204110	     -9.32883811	     20.99745641	    -14.04540430	    -14.29965903	      6.95673575	     13.55670012	      0.12141794	      1.45751362	     -0.12812955	     -9.32883811	    -11.88537193	     -0.70745410	     13.73366109	     15.32532283	    -22.17827753	     -0.49275645	     43.59098074	     90.00000001	      0.00000000	      0.00000000	    -22.06698613	    -15.16034714	     -1.18126599	     23.84630465	     90.00000001	      0.00000000	      0.00000000
      0.05000000	      2.48038912	     -2.83651316	     -8.18341333	     -1.31325749	      0.99052934	     -0.23578951	    -19.79439183	      0.50663002	      6.84805785	      7.26123037	     10.21050480	      0.12673238	     13.82694748	      6.64851398	     -9.13294118	     20.93917418	    -14.09355249	    -15.64812791	      6.38706022	     13.76187590	      0.11147523	      2.01486548	      1.94696369	     -9.13294118	    -11.99865209	     -1.01409779	     13.95418941	     15.99257784	    -22.40631114	      0.40941195	     43.91405473	     90.00000001	      0.00000000	      0.00000000	    -22.39325371	    -14.77546898	     -2.56161034	     23.42764316	     90.00000001	      0.00000000	      0.00000000
      0.06000000	      2.47332565	     -2.71567803	     -8.59016950	     -1.29914789	      0.98843490	     -0.23570209	    -20.34218747	      0.17944780	      7.30115974	      7.81838739	     10.07872479	      0.13645660	     13.85680973	      6.50847641	     -9.09748045	     20.97082843	    -13.99019440	    -15.93929434	      5.85144857	     13.86361872	      0.10212704	      2.09391534	      2.37011740	     -9.09748045	    -11.95605392	     -1.34260610	     14.13498382	     16.52123036	    -22.55630672	      1.07680069	     44.18568314	     90.00000001	      0.00000000	      0.00000000	    -22.78918337	    -14.65122323	     -2.80911451	     23.34682920	     90.00000001	      0.00000000	      0.00000000
